<svg id="Capa_1" data-name="Capa 1" xmlns="http://www.w3.org/2000/svg" xmlns:xlink="http://www.w3.org/1999/xlink" viewBox="0 0 1686.22 2262.58"><defs><style>.cls-1{fill:url(#Degradado_sin_nombre_45);}</style><linearGradient id="Degradado_sin_nombre_45" x1="982.88" y1="2319.87" x2="1390.34" y2="9.02" gradientUnits="userSpaceOnUse"><stop offset="0.18" stop-color="#5b3588"/><stop offset="0.83" stop-color="#b57db0"/><stop offset="0.89" stop-color="#b37baf"/><stop offset="0.92" stop-color="#aa74ab"/><stop offset="0.95" stop-color="#9c69a5"/><stop offset="0.97" stop-color="#89589c"/><stop offset="0.99" stop-color="#6f4390"/><stop offset="1" stop-color="#603789"/></linearGradient></defs><title>4_logoprincipledef</title><path class="cls-1" d="M936.71,1433.85c0,188.78.89,377.56-.24,566.33-1.2,199.29-226.55,325.68-398.73,224.62-42.06-24.7-42.4-28.3-7.84-61.5,47.7-45.84,63.57-101.14,42.39-163.83s-66.44-98.61-133.08-103c-28.73-1.91-37.4-14.45-37.34-41.83.77-350.21-4-700.51,2.28-1050.62,7.27-406,341.45-758.62,745.2-800.8,267.31-27.92,497.39,53.47,688,238.45,365.36,354.67,323.83,957.11-84.82,1267.59-146.31,111.16-312,169.92-497,169.78-150.88-.12-272.28-116.22-274.33-262.27-2.05-145.79,116.19-265.73,266.47-272.39,128-5.67,223.66-63.61,277.88-181.79,86.62-188.8-55-409.82-262.58-419.13C1099,536.07,936.3,652.54,936.38,863.61q.11,285.12,0,570.24Zm146.91-24.08c-.41,93.77,69.72,166.85,162.35,169.18,91.36,2.29,170.54-74.71,171.2-166.49.64-90-74.22-167.12-164.49-169.37C1159,1240.75,1084,1314.64,1083.62,1409.77Z" transform="translate(-400.86 2.19)"/></svg>