<svg id="Capa_1" data-name="Capa 1" xmlns="http://www.w3.org/2000/svg" viewBox="0 0 1841.14 1923.8"><defs><style>.cls-1{fill:#fff;}</style></defs><title>7_notion</title><path d="M2121.41,1061q0,318.76,0,637.53c0,4.18,0,8.36,0,12.54-.5,87.83-38.76,130.26-126.56,136-166.11,10.85-332.32,20.14-498.48,30.23Q1237.74,1893,979.13,1909c-78.57,4.78-157.22,8.37-235.7,14.2-69.57,5.17-120.74-20.56-162.3-77.55-75.07-103-154.13-203-232.49-303.55-45.25-58.06-68.18-120.79-67.73-196.44,2.27-374.14,1-748.31,1.24-1122.47,0-17.29,1.08-35,4.8-51.8,11.3-51,49.45-83.49,103.76-87.64,172.22-13.13,344.5-25.45,516.75-38.23,159-11.81,318.06-24,477.12-35.63,54.16-4,108.38-7.6,162.64-9.68,46.58-1.78,89.69,11.43,127.86,38.26q201.62,141.7,402.8,284c31,21.78,44.4,49.56,44.16,88.52C2120.73,627.61,2121.41,844.31,2121.41,1061ZM662.3,1141q0,278,.1,556c.07,54.49,24,79.28,76.88,79.46,28.52.1,57.05-2.17,85.56-3.79q268.09-15.2,536.17-30.61c184.28-10.67,368.53-21.81,552.82-32.21,55.08-3.11,76.32-22.58,80.58-77.55.43-5.55.46-11.14.46-16.71q0-549.76-.15-1099.53a187,187,0,0,0-3-35.3C1986,451.41,1969,438,1939,438.34c-13.93.17-27.86.88-41.77,1.7Q1594.78,458,1292.3,476q-284.74,16.83-569.51,33.46c-37.92,2.26-55.46,19.22-59.57,56.77-1.13,10.35-.9,20.88-.9,31.32Q662.24,869.29,662.3,1141ZM1857.77,309.79l3.1-6.14c-7-7.56-13-16.47-21.09-22.46-55.49-40.86-112.58-79.63-166.88-122-50-39-104.76-55.39-167.41-50.52-118,9.17-236.1,17.43-354.16,26.07q-280.2,20.5-560.41,41c-36.81,2.7-73.77,4.29-110.31,9-11.58,1.51-22,11.62-33,17.8,5.92,9.38,9.95,21.06,18.08,27.76,45.1,37.15,91.87,72.29,136.74,109.72C637.58,369.4,677,382,722.15,379.19q245-15,490-29.63,267.94-16.15,535.9-32.3C1784.66,315,1821.21,312.29,1857.77,309.79Z" transform="translate(-280.91 0)"/><path class="cls-1" d="M662.29,1141q0-271.75,0-543.5c0-10.44-.23-21,.9-31.32,4.11-37.55,21.65-54.51,59.57-56.77Q1007.54,492.51,1292.3,476q302.49-17.87,605-35.94c13.91-.82,27.84-1.53,41.77-1.7,30-.37,47,13.07,52.65,42.48a187,187,0,0,1,3,35.3q.26,549.77.15,1099.53c0,5.57,0,11.16-.46,16.71-4.26,55-25.5,74.44-80.58,77.55-184.29,10.4-368.54,21.54-552.82,32.21q-268.08,15.51-536.17,30.61c-28.51,1.62-57,3.89-85.56,3.79-52.93-.18-76.81-25-76.88-79.46Q662,1419,662.29,1141Zm555.05,381.32c-32.23-7.31-64.55-15.2-97.15-21.75-13.21-2.65-18-8-18-22,.55-170,.45-340,.59-509.95,0-6.62.84-13.24,1.61-24.64,7.11,10.1,11.65,16,15.63,22.29,95.23,149.82,189.94,300,285.82,449.34,30.39,47.34,63,93.36,96.28,138.7,18.4,25,45.93,34.41,77,35.18,42.4,1,80.42-13.12,118.35-29.76,16.51-7.24,21.77-16.86,21.73-34.77q-.9-375.15-.4-750.3c0-48.56,0-48.56,47.34-58.33,39.84-8.22,53.26-32.43,39.11-72.43-23.21,1.33-46.77,2.61-70.33,4-61.86,3.74-123.79,6.76-185.57,11.63-32.93,2.61-56.44,26.52-59.2,54.88-1.32,13.56,2.09,20.29,17.32,21.35,26.13,1.82,52.11,5.86,78.47,9v511.92c-9.75-14.49-16.34-24-22.66-33.68q-173.55-265.79-346.81-531.77c-7-10.8-14.07-14.42-26.91-13.23-37.43,3.48-75,5.27-112.53,7.93-50.7,3.61-101.54,6-152,11.56-41.73,4.58-66.26,44.18-54.43,84.13l89.94,8.75v43.88q0,315.59-.06,631.17c0,19.43,6.17,44.49-3.47,56.75-10.31,13.11-36,14.14-54.92,20.43-.66.22-1.37.27-2,.47-22,6.67-33.2,21.24-34.5,44.12-.68,11.93,2.52,18,16.29,17.11,88.27-5.65,176.62-10.06,264.85-16.27C1187.38,1585.21,1212.64,1560.68,1217.34,1522.35Z" transform="translate(-280.91 0)"/><path class="cls-1" d="M1857.77,309.79c-36.56,2.5-73.11,5.25-109.69,7.47q-267.94,16.26-535.9,32.3-245,14.76-490,29.63C677,382,637.58,369.4,602.43,340.08c-44.87-37.43-91.64-72.57-136.74-109.72-8.13-6.7-12.16-18.38-18.08-27.76,11-6.18,21.42-16.29,33-17.8,36.54-4.75,73.5-6.34,110.31-9q280.2-20.55,560.41-41c118.06-8.64,236.14-16.9,354.16-26.07,62.65-4.87,117.45,11.53,167.41,50.52,54.3,42.37,111.39,81.14,166.88,122,8.13,6,14.12,14.9,21.09,22.46Z" transform="translate(-280.91 0)"/><path d="M1217.34,1522.35c-4.7,38.33-30,62.86-70.68,65.72-88.23,6.21-176.58,10.62-264.85,16.27-13.77.88-17-5.18-16.29-17.11,1.3-22.88,12.45-37.45,34.5-44.12.67-.2,1.38-.25,2-.47,19-6.29,44.61-7.32,54.92-20.43,9.64-12.26,3.46-37.32,3.47-56.75q.16-315.59.06-631.17V790.41l-89.94-8.75c-11.83-39.95,12.7-79.55,54.43-84.13,50.49-5.55,101.33-7.95,152-11.56,37.51-2.66,75.1-4.45,112.53-7.93,12.84-1.19,19.89,2.43,26.91,13.23q173,266.15,346.81,531.77c6.32,9.68,12.91,19.19,22.66,33.68V744.8c-26.36-3.15-52.34-7.19-78.47-9-15.23-1.06-18.64-7.79-17.32-21.35,2.76-28.36,26.27-52.27,59.2-54.88,61.78-4.87,123.71-7.89,185.57-11.63,23.56-1.43,47.12-2.71,70.33-4,14.15,40,.73,64.21-39.11,72.43-47.33,9.77-47.34,9.77-47.34,58.33q0,375.15.4,750.3c0,17.91-5.22,27.53-21.73,34.77-37.93,16.64-76,30.81-118.35,29.76-31.06-.77-58.59-10.13-77-35.18-33.32-45.34-65.89-91.36-96.28-138.7C1310,1266.21,1215.26,1116.08,1120,966.26c-4-6.27-8.52-12.19-15.63-22.29-.77,11.4-1.6,18-1.61,24.64-.14,170,0,340-.59,509.95,0,14,4.78,19.39,18,22C1152.79,1507.15,1185.11,1515,1217.34,1522.35Z" transform="translate(-280.91 0)"/></svg>