<?xml version="1.0" encoding="utf-8"?>
<!-- Generator: Adobe Illustrator 22.1.0, SVG Export Plug-In . SVG Version: 6.00 Build 0)  -->
<svg version="1.1" id="Capa_1" xmlns="http://www.w3.org/2000/svg" xmlns:xlink="http://www.w3.org/1999/xlink" x="0px" y="0px"
	 viewBox="0 0 2500 1573" style="enable-background:new 0 0 2500 1573;" xml:space="preserve">
<style type="text/css">
	.st0{fill:#515254;}
</style>
<path class="st0" d="M740.6,0c74.9,0,143.2,6.6,204.9,19.8c61.7,13.2,114.6,34.9,158.6,65c44.1,30.1,78.2,70.1,102.4,120.1
	s36.4,111.6,36.4,185.1c0,79.3-18,145.4-54,198.3c-36,52.9-89.2,96.2-159.7,130c96.9,27.9,169.3,76.8,217,146.5
	c47.7,69.8,71.6,153.9,71.6,252.3c0,79.3-15.4,148-46.3,206c-30.8,58-72.3,105.4-124.5,142.1c-52.1,36.7-111.6,63.9-178.5,81.5
	c-67.2,17.7-136.5,26.5-206,26.4H0.3V0H740.6z M696.5,636.7c61.7,0,112.3-14.7,152-44.1c39.7-29.4,59.5-77.1,59.5-143.2
	c0-36.7-6.6-66.8-19.8-90.3c-13.2-23.5-30.8-41.9-52.9-55.1c-22-13.2-47.4-22.4-76-27.5c-29.5-5.2-59.3-7.8-89.2-7.7H346.2v367.9
	L696.5,636.7L696.5,636.7z M716.3,1304.2c33.8,0,66.1-3.3,96.9-9.9c30.8-6.6,58-17.6,81.5-33.1c23.5-15.4,42.2-36.3,56.2-62.8
	c13.9-26.4,20.9-60.2,20.9-101.3c0-80.7-22.8-138.4-68.3-172.9c-45.5-34.5-105.8-51.8-180.7-51.8H346.2v431.8L716.3,1304.2
	L716.3,1304.2z M1753.1,1271.2c47,45.6,114.6,68.3,202.7,68.3c63.1,0,117.5-15.8,163-47.4c45.5-31.5,73.4-65,83.7-100.2h275.4
	c-44,136.6-111.6,234.3-202.7,293c-91.1,58.8-201.3,88.1-330.5,88.1c-89.6,0-170.4-14.3-242.3-43c-72-28.6-132.9-69.4-182.8-122.3
	c-49.9-52.9-88.5-116-115.7-189.4c-27.2-73.4-40.7-154.2-40.7-242.3c0-85.2,13.9-164.5,41.9-237.9c27.9-73.4,67.5-136.9,119-190.6
	c51.4-53.6,112.7-95.8,184-126.7c71.2-30.9,150.2-46.3,236.8-46.3c96.9,0,181.4,18.7,253.4,56.2c71.9,37.4,131.1,87.8,177.4,150.9
	c46.3,63.2,79.6,135.1,100.3,215.9c20.6,80.8,27.9,165.2,22,253.4H1676C1680.4,1152.2,1706.1,1225.7,1753.1,1271.2L1753.1,1271.2z
	 M2106.7,672c-37.4-41.1-94.4-61.7-170.7-61.7c-49.9,0-91.4,8.5-124.5,25.3c-33.1,16.9-59.5,37.8-79.3,62.8
	c-19.8,25-33.8,51.4-41.8,79.3c-8.1,27.9-12.9,52.9-14.3,74.9h508.9C2170.2,773.3,2144.1,713.1,2106.7,672z M1622.6,79.9h635.9
	v176.3h-635.9L1622.6,79.9z"/>
</svg>
