<svg id="Capa_1" data-name="Capa 1" xmlns="http://www.w3.org/2000/svg" viewBox="0 0 1974.39 1974.59"><defs><style>.cls-1{fill:#525252;}</style></defs><title>logo4_domestika</title><path class="cls-1" d="M265.32,991c.3-535.8,427.39-985.82,985.49-986.79,549.89-1,990.27,436.21,988.9,988.78-1.41,565.24-457.1,987.2-989.92,985.81C704.87,1977.32,265,1535.75,265.32,991Zm719-339.14c-4.68,2.55-7.17,3.07-8.18,4.57-68.88,102.45-138,204.76-205.68,308C766,971,768.6,987.26,774,994.65q115.71,158.92,234,316c8.08,10.68,25.94,19.58,39.37,19.72q204.89,2.15,409.8-.07c14.26-.16,33.15-9.83,41.78-21.23,77.79-102.81,153.34-207.31,230.72-310.44,11.77-15.68,12.48-25.81,1.42-41.93-48-70.06-94.6-141.11-141.72-211.78-20.73-31.09-41.53-62.14-65.38-97.82l-271.48,366.48Z" transform="translate(-265.32 -4.16)"/></svg>